Coordinates
version=1
nRows=9
nColumns=42
inDegrees=yes

Units are S.I. units (second, meters, Newtons, ...)
If the header above contains a line with 'inDegrees', this indicates whether rotational values are in degrees (yes) or radians (no).

endheader
time	pelvis_tilt	pelvis_list	pelvis_rotation	pelvis_tx	pelvis_ty	pelvis_tz	hip_flexion_r	hip_adduction_r	hip_rotation_r	knee_angle_r	knee_adduction_r	knee_angle_r_beta	ankle_angle_r	subtalar_angle_r	mtp_angle_r	hip_flexion_l	hip_adduction_l	hip_rotation_l	knee_angle_l	knee_adduction_l	knee_angle_l_beta	ankle_angle_l	subtalar_angle_l	mtp_angle_l	lumbar_extension	lumbar_bending	lumbar_rotation	arm_flex_r	arm_add_r	arm_rot_r	elbow_flex_r	pro_sup_r	wrist_flex_r	wrist_dev_r	arm_flex_l	arm_add_l	arm_rot_l	elbow_flex_l	pro_sup_l	wrist_flex_l	wrist_dev_l
      6.00000000	      7.90190577	     -4.01495416	     -5.62829907	      0.51217343	      0.95204764	     -0.15204554	      5.87685447	     -9.83467390	    -16.02846012	     38.22359330	      4.89374590	      0.66712756	      6.10750839	      3.70270610	     -7.50306595	     -2.80188278	     -3.33109138	    -21.84974643	     23.06557690	      2.89557141	      0.40257026	     17.15463364	      2.56595249	     -7.50306595	    -17.97513167	      1.10410628	     -0.28681830	      6.89155069	     -7.40697437	      1.18409386	     37.15450886	     90.00000001	      0.00000000	      0.00000000	    -14.05072026	    -10.89992476	     -2.84068686	     48.72192463	     90.00000001	      0.00000000	      0.00000000
      6.01000000	      7.92585332	     -4.23917940	     -5.66902095	      0.51338247	      0.95227064	     -0.15186566	      5.94469275	     -9.43408443	    -15.92285099	     36.68077917	      5.15327290	      0.64020037	      6.39031588	      5.04531609	     -7.50299333	     -2.94398823	     -3.55232027	    -21.61691445	     23.08134440	      2.94559059	      0.40284546	     17.22145603	      2.21568913	     -7.50299333	    -18.10422970	      1.27984922	     -0.19565590	      6.96813924	     -7.34821762	      0.74830722	     36.80993664	     90.00000001	      0.00000000	      0.00000000	    -13.98050130	    -10.82594067	     -2.84410888	     48.56803603	     90.00000001	      0.00000000	      0.00000000
      6.02000000	      7.82199871	     -4.25971273	     -5.75080914	      0.51457982	      0.95208975	     -0.15164535	      6.35772345	     -9.34861690	    -15.99314617	     35.54988783	      5.40665140	      0.62046259	      6.48783004	      5.82545029	     -7.50294984	     -2.91554622	     -3.53623284	    -21.52466983	     23.07592278	      2.92251108	      0.40275083	     17.29279217	      2.04560346	     -7.50294984	    -18.06559357	      1.24231820	     -0.10865262	      6.93819938	     -7.34391586	      0.57957280	     36.65919042	     90.00000001	      0.00000000	      0.00000000	    -13.96796600	    -10.80092287	     -2.84582379	     48.53875637	     90.00000001	      0.00000000	      0.00000000
      6.03000000	      7.69260074	     -4.23328913	     -5.85989255	      0.51576314	      0.95183042	     -0.15142973	      6.80899593	     -9.27806528	    -16.01287033	     34.37291755	      5.61409588	      0.59992058	      6.55200500	      6.53555505	     -7.50292119	     -2.84959140	     -3.47525554	    -21.46016934	     23.09290635	      2.90712030	      0.40304725	     17.37866740	      1.90951266	     -7.50292119	    -17.99614337	      1.14839029	     -0.02308744	      6.90433075	     -7.35933615	      0.46450793	     36.53081632	     90.00000001	      0.00000000	      0.00000000	    -13.95872850	    -10.74436163	     -2.83623865	     48.50385682	     90.00000001	      0.00000000	      0.00000000
      6.04000000	      7.75750846	     -4.41501949	     -5.89302605	      0.51703051	      0.95195498	     -0.15103369	      6.93526474	     -8.99590241	    -16.46063178	     33.11434197	      5.72252851	      0.57795430	      6.72835046	      8.22882538	     -7.50284633	     -3.05162567	     -3.74922648	    -21.38060069	     23.15706676	      3.10576744	      0.40416706	     17.45661611	      1.52484315	     -7.50284633	    -18.16698833	      1.26712883	      0.07696471	      6.94228902	     -7.29498499	      0.09755507	     36.30162689	     90.00000001	      0.00000000	      0.00000000	    -13.82951118	    -10.71068325	     -2.87340100	     48.29980043	     90.00000001	      0.00000000	      0.00000000
      6.05000000	      7.65456771	     -4.40171166	     -5.97155309	      0.51830804	      0.95167991	     -0.15088952	      7.32794800	     -8.94551620	    -16.76200503	     31.95816844	      5.87121317	      0.55777526	      6.78164206	      9.64684799	     -7.50276868	     -3.00940017	     -3.70679567	    -21.28687687	     23.19838567	      3.10693368	      0.40488821	     17.54240385	      1.30608366	     -7.50276868	    -18.11966725	      1.21549553	      0.11812055	      6.93759649	     -7.32265307	     -0.08588012	     36.18281554	     90.00000001	      0.00000000	      0.00000000	    -13.81613222	    -10.61671308	     -2.85342524	     48.21325975	     90.00000001	      0.00000000	      0.00000000
      6.06000000	      7.48186977	     -4.31979438	     -6.07483366	      0.51937522	      0.95124291	     -0.15059485	      7.87355356	     -8.93804138	    -16.80974485	     30.91887023	      6.13473961	      0.53963609	      6.68606950	     10.36504505	     -7.50274082	     -2.84842737	     -3.58019035	    -21.21069803	     23.24872310	      3.03286429	      0.40576677	     17.61619129	      1.24328241	     -7.50274082	    -18.02216712	      1.08621660	      0.18065455	      6.90568993	     -7.36666509	     -0.12895800	     36.14385742	     90.00000001	      0.00000000	      0.00000000	    -13.79396306	    -10.61736291	     -2.85397666	     48.20251715	     90.00000001	      0.00000000	      0.00000000
      6.07000000	      7.34611183	     -4.28304052	     -6.17751049	      0.52054354	      0.95087468	     -0.15025888	      8.30181264	     -8.89937325	    -16.93711405	     29.80283068	      6.43783491	      0.52015752	      6.53750638	     11.33185889	     -7.50271721	     -2.73616576	     -3.54732997	    -21.19691099	     23.34976825	      3.02287013	      0.40753034	     17.73366159	      1.10043323	     -7.50271721	    -17.95449544	      0.99628907	      0.25685437	      6.88987110	     -7.39787031	     -0.19226297	     36.06248631	     90.00000001	      0.00000000	      0.00000000	    -13.73086997	    -10.56840001	     -2.84464297	     48.09612574	     90.00000001	      0.00000000	      0.00000000
      6.08000000	      7.37417380	     -4.40305985	     -6.15442660	      0.52195335	      0.95075947	     -0.14998184	      8.50042990	     -8.68325656	    -17.97991386	     28.78537496	      6.27562091	      0.50239957	      6.55396237	     13.84049308	     -7.50260744	     -2.84819767	     -3.74297324	    -21.09490207	     23.47273220	      3.13749674	      0.40967646	     17.85113110	      0.87850679	     -7.50260744	    -18.06539813	      1.10358126	      0.26880307	      6.89279451	     -7.41152752	     -0.44938139	     36.00340208	     90.00000001	      0.00000000	      0.00000000	    -13.62010078	    -10.50404357	     -2.86854518	     47.91930693	     90.00000001	      0.00000000	      0.00000000
